<?xml version="1.0" standalone="no"?>
<!DOCTYPE svg PUBLIC "-//W3C//DTD SVG 20010904//EN"
 "http://www.w3.org/TR/2001/REC-SVG-20010904/DTD/svg10.dtd">
<svg version="1.0" xmlns="http://www.w3.org/2000/svg"
 width="740.000000pt" height="740.000000pt" viewBox="0 0 740.000000 740.000000"
 preserveAspectRatio="xMidYMid meet">

<g transform="translate(0.000000,740.000000) scale(0.100000,-0.100000)"
fill="#000000" stroke="none">
<path d="M2871 6078 c1 -72 22 -219 32 -218 4 0 20 0 35 0 29 0 29 0 40 94 7
52 12 113 12 135 l0 41 -60 0 -60 0 1 -52z"/>
<path d="M2617 6016 c-99 -21 -148 -78 -116 -134 21 -39 55 -52 135 -52 76 0
86 -4 77 -27 -10 -25 -53 -36 -78 -19 -20 13 -28 13 -73 -1 -56 -18 -59 -34
-11 -58 61 -32 189 -7 233 46 34 41 35 87 1 119 -23 21 -35 24 -108 25 -75 0
-82 2 -82 20 0 14 8 21 28 23 16 2 34 -1 40 -6 8 -6 29 -4 60 7 l48 16 -23 21
c-32 29 -63 34 -131 20z"/>
<path d="M2284 5941 c-12 -5 -31 -21 -42 -36 -19 -24 -21 -24 -26 -7 -6 18
-11 18 -54 10 -26 -6 -48 -11 -49 -12 -3 -3 85 -387 90 -392 4 -4 95 14 104
20 1 1 -4 29 -12 61 -19 78 -19 76 12 64 49 -18 120 10 141 57 28 59 3 174
-46 217 -24 22 -87 31 -118 18z m50 -103 c19 -27 21 -89 4 -106 -19 -19 -55
-14 -72 10 -19 27 -21 89 -4 106 19 19 55 14 72 -10z"/>
<path d="M3493 5901 c-268 -73 -413 -250 -502 -611 -78 -320 -92 -663 -35
-885 47 -182 167 -336 323 -415 181 -91 506 -126 696 -74 287 77 454 349 529
860 33 222 29 474 -10 634 -44 183 -165 340 -324 418 -132 64 -224 83 -430 88
-151 4 -185 1 -247 -15z m747 -781 c14 -26 49 -44 81 -42 36 3 94 -58 86 -90
-7 -25 24 -88 43 -88 5 0 10 -23 10 -51 0 -44 -4 -55 -30 -79 -22 -21 -30 -37
-30 -62 0 -52 -47 -93 -107 -93 -37 -1 -48 -5 -65 -28 -17 -23 -27 -27 -67
-27 -40 0 -50 4 -61 24 -15 29 -60 50 -87 42 -28 -9 -78 59 -79 108 0 30 -7
44 -27 60 -22 18 -27 30 -27 65 0 36 6 48 36 76 30 28 35 39 30 62 -6 24 -1
34 28 62 25 24 41 32 56 28 28 -7 70 9 87 33 20 29 108 28 123 0z m-761 -234
c18 -21 61 -29 92 -16 25 11 33 8 73 -19 38 -26 45 -37 48 -68 2 -30 10 -42
35 -58 25 -16 34 -31 43 -69 9 -44 8 -51 -10 -71 -22 -23 -26 -65 -10 -96 9
-15 5 -28 -20 -64 -26 -37 -36 -45 -63 -45 -37 -1 -61 -16 -71 -47 -5 -17 -20
-24 -62 -33 -52 -11 -58 -10 -78 9 -24 23 -56 27 -87 10 -31 -16 -109 36 -109
74 0 39 -15 64 -49 82 -24 12 -30 23 -36 65 -5 39 -3 55 8 68 23 26 29 57 16
85 -10 22 -8 32 17 71 23 37 35 46 57 46 32 0 77 26 77 46 0 16 14 25 54 35
48 11 63 10 75 -5z"/>
<path d="M4099 4921 c-20 -20 -29 -40 -29 -61 0 -85 76 -133 150 -95 91 47 53
185 -50 185 -33 0 -48 -6 -71 -29z"/>
<path d="M3407 4873 c-15 -2 -32 -14 -38 -26 -17 -34 -51 -57 -84 -57 -42 0
-80 -57 -64 -97 11 -31 4 -70 -17 -94 -22 -25 -8 -98 21 -109 28 -11 55 -52
55 -84 0 -33 64 -80 91 -66 29 16 71 11 93 -9 30 -28 85 -14 129 33 25 26 43
36 65 36 46 0 73 49 65 119 -5 43 -3 55 14 74 17 19 18 28 11 65 -5 24 -15 42
-23 42 -21 0 -55 50 -55 81 0 40 -61 82 -99 68 -31 -12 -85 -4 -101 16 -7 8
-18 14 -24 14 -6 -1 -23 -4 -39 -6z m172 -111 c56 -34 91 -96 91 -163 0 -61
-13 -96 -53 -138 -41 -43 -84 -61 -147 -61 -190 0 -268 239 -117 354 68 51
149 54 226 8z"/>
<path d="M3437 4769 c-97 -16 -163 -122 -137 -218 21 -80 89 -131 176 -131
130 0 211 133 155 256 -32 70 -111 108 -194 93z"/>
<path d="M1406 5855 c-49 -17 -102 -69 -117 -113 -26 -79 8 -203 71 -255 75
-64 233 -41 304 43 33 40 39 66 34 139 -6 79 -42 149 -94 178 -46 27 -136 30
-198 8z m127 -95 c40 -32 61 -135 37 -180 -14 -27 -71 -43 -104 -30 -50 19
-86 148 -53 191 32 42 81 49 120 19z"/>
<path d="M1881 5850 c-102 -24 -153 -122 -113 -213 30 -68 69 -89 155 -84 76
5 107 21 145 77 46 67 15 176 -60 210 -46 21 -72 23 -127 10z m74 -90 c9 -10
20 -39 22 -64 5 -39 2 -46 -20 -61 -35 -22 -65 -11 -83 31 -18 43 -18 64 2 92
19 27 55 28 79 2z"/>
<path d="M4598 5853 c12 -2 32 -2 45 0 12 2 2 4 -23 4 -25 0 -35 -2 -22 -4z"/>
<path d="M4538 5843 c7 -3 16 -2 19 1 4 3 -2 6 -13 5 -11 0 -14 -3 -6 -6z"/>
<path d="M4685 5815 c-16 -13 -30 -30 -30 -37 0 -7 -4 -23 -8 -35 -13 -36 33
-89 85 -97 23 -4 44 -3 47 1 3 5 19 16 34 26 15 10 25 22 22 27 -3 5 0 21 7
35 10 23 10 29 -5 40 -9 7 -17 19 -17 28 0 17 -13 22 -70 31 -28 5 -41 1 -65
-19z m99 -57 c14 -23 -3 -52 -33 -56 -42 -6 -67 38 -39 66 17 17 58 11 72 -10z"/>
<path d="M2880 5775 l0 -45 55 0 55 0 0 45 0 45 -55 0 -55 0 0 -45z"/>
<path d="M4560 5804 c-43 -19 -100 -62 -100 -76 0 -6 12 2 28 17 15 15 46 36
70 47 23 10 42 21 42 23 0 6 0 7 -40 -11z"/>
<path d="M4399 5773 l-34 -38 35 30 c19 16 39 33 45 37 5 5 5 8 -1 8 -6 0 -26
-17 -45 -37z"/>
<path d="M1596 5198 c-18 -42 -21 -104 -6 -142 22 -58 -38 -29 -70 35 -11 21
-24 56 -29 76 -9 37 -9 37 -10 7 -2 -62 72 -170 112 -162 6 1 24 -6 39 -15 14
-10 35 -17 45 -15 11 2 17 -2 15 -10 -1 -8 -63 -120 -136 -250 -74 -131 -143
-253 -153 -272 -11 -19 -93 -165 -183 -323 l-162 -289 38 -209 c21 -115 42
-209 46 -209 4 0 205 36 447 80 242 44 449 80 459 80 16 0 22 -19 42 -127 13
-71 25 -145 28 -166 2 -20 7 -39 11 -42 9 -5 418 69 427 77 3 4 -7 80 -24 170
-16 90 -27 166 -24 170 4 4 52 14 107 24 55 9 103 20 108 24 6 5 -56 377 -66
386 -2 2 -52 -6 -112 -17 -88 -17 -109 -18 -116 -7 -7 10 4 14 47 18 51 5 59
9 88 45 17 22 50 59 74 83 24 25 41 46 38 49 -2 3 -17 -10 -33 -27 l-29 -32
-38 26 c-38 25 -86 35 -86 17 0 -16 61 -61 82 -61 20 0 20 -1 4 -19 -16 -18
-18 -17 -63 5 -56 29 -93 33 -72 8 18 -21 64 -44 91 -44 l23 -1 -24 -19 c-22
-19 -111 -29 -111 -13 0 4 -27 151 -60 327 -32 177 -77 419 -99 540 -22 120
-42 220 -44 222 -2 2 -100 -14 -217 -35 -233 -43 -222 -37 -266 -124 -14 -27
-27 -47 -30 -45 -2 2 3 36 11 74 17 81 19 111 5 119 -16 10 -43 -66 -45 -130
-2 -64 -12 -76 -38 -47 -15 16 -16 27 -7 72 14 73 13 113 -4 136 -14 18 -15
17 -30 -18z m28 -73 c-7 -68 -13 -83 -25 -64 -12 20 -11 80 2 118 17 50 31 18
23 -54z m85 -33 c-6 -34 -16 -62 -21 -62 -12 0 -4 62 12 106 17 43 21 23 9
-44z m230 -818 c29 -157 50 -289 47 -292 -9 -9 -479 -93 -485 -86 -3 2 -1 13
5 22 6 9 90 158 188 330 98 171 181 312 185 312 4 0 31 -129 60 -286z m622
-41 c31 -19 38 -33 15 -33 -19 0 -76 49 -58 50 8 0 27 -8 43 -17z m-55 -69
c18 -14 18 -14 -6 -3 -31 14 -36 19 -24 19 6 0 19 -7 30 -16z"/>
<path d="M5609 5057 c-91 -83 -246 -226 -345 -317 -98 -91 -195 -179 -214
-197 -19 -18 -107 -99 -196 -180 l-160 -148 -29 -208 c-15 -114 -25 -210 -22
-213 3 -3 210 -33 460 -67 251 -34 459 -65 462 -69 4 -4 -3 -81 -16 -172 -12
-92 -20 -168 -18 -171 3 -2 65 -11 139 -21 74 -9 142 -19 150 -22 8 -3 18 -5
22 -4 4 1 34 -2 66 -6 l59 -8 22 170 c12 94 24 172 26 175 4 4 164 -14 211
-24 19 -4 22 5 46 193 13 108 24 198 24 199 -1 1 -42 7 -91 13 -126 15 -135
19 -135 44 0 11 34 269 74 571 41 303 73 551 71 553 -3 3 -413 61 -435 62 -3
0 -80 -69 -171 -153z m56 -710 c-21 -155 -39 -283 -40 -285 -4 -5 -495 63
-495 69 0 5 192 182 485 448 44 40 81 67 83 61 2 -6 -13 -138 -33 -293z"/>
<path d="M3687 3740 c-72 -13 -167 -62 -215 -111 -97 -98 -144 -243 -168 -522
l-6 -78 -309 7 -309 7 3 -168 2 -168 -70 -12 c-176 -30 -374 -102 -389 -141
-3 -9 7 -55 23 -103 41 -118 62 -227 68 -348 6 -99 5 -103 -14 -103 -61 0
-137 -61 -179 -142 -39 -76 -30 -112 28 -120 27 -3 27 -4 -45 -93 -66 -81
-145 -155 -167 -155 -5 0 -21 39 -36 86 l-27 86 -68 44 c-37 24 -72 44 -78 44
-6 0 -17 -10 -25 -23 -13 -20 -11 -38 18 -182 18 -88 36 -177 40 -198 6 -32
14 -41 51 -59 l44 -21 46 24 c26 13 56 33 68 44 12 11 35 27 52 35 66 33 175
151 300 324 l20 28 112 -83 c61 -46 152 -109 202 -139 82 -50 90 -58 91 -86
l0 -32 -197 -4 c-121 -2 -206 -8 -217 -15 -16 -9 -9 -12 45 -19 72 -8 73 -8
-74 -40 -43 -9 -74 -21 -69 -26 37 -37 833 -36 972 2 76 20 49 34 -93 46 -42
3 -80 11 -84 17 -4 7 35 8 123 4 71 -3 194 -7 274 -9 80 -2 151 -7 158 -11 8
-6 12 -40 12 -111 l0 -103 92 -7 c163 -11 181 -9 210 22 14 15 28 36 30 46 2
15 18 22 73 33 85 18 166 44 240 79 51 24 63 26 143 21 69 -5 135 2 328 30
l241 36 17 181 c9 99 18 181 19 183 2 1 27 -35 56 -80 57 -86 301 -339 354
-367 34 -17 61 -5 65 31 2 19 -11 36 -67 83 -88 73 -197 187 -257 269 -75 102
-101 161 -114 267 -11 88 -9 128 29 526 23 237 41 441 41 453 0 17 -8 22 -40
27 -42 7 -48 15 -26 33 10 8 22 7 51 -4 47 -20 129 -17 133 6 4 23 -67 52
-117 47 -35 -3 -41 -1 -41 16 0 11 7 27 16 37 12 14 22 15 47 8 49 -14 160
-12 155 3 -6 16 -105 39 -133 32 -11 -3 -28 -8 -37 -10 -14 -4 -18 1 -18 20 0
35 15 41 102 37 86 -3 118 4 118 24 0 26 -128 33 -182 10 -13 -5 -18 -3 -18 8
0 24 71 79 126 98 27 10 40 18 29 18 -32 1 -120 -44 -143 -74 -12 -15 -22 -40
-22 -56 0 -15 -4 -31 -10 -34 -5 -3 -10 -16 -10 -28 0 -13 -9 -40 -19 -61 -11
-21 -18 -43 -16 -49 3 -7 -7 -25 -20 -42 l-24 -29 -113 19 c-68 12 -187 21
-300 25 l-188 5 -4 130 c-11 322 -135 508 -388 582 -90 26 -245 37 -321 23z
m-36 -292 l126 -11 -1 -62 c-1 -71 17 -113 53 -127 50 -18 99 48 100 135 1 33
4 37 26 37 24 0 25 -2 25 -62 -1 -148 -114 -258 -264 -258 -162 0 -297 181
-245 329 13 36 7 36 180 19z m1633 -244 c34 -13 2 -24 -70 -24 -67 0 -94 10
-61 23 18 8 113 8 131 1z m-44 -104 c19 -12 -76 -12 -105 0 -14 6 -5 9 35 9
30 0 62 -4 70 -9z m-65 -94 c47 -20 44 -36 -5 -36 -54 0 -121 27 -100 40 22
14 66 12 105 -4z m-2475 -413 c0 -32 26 -629 36 -837 6 -117 5 -138 -7 -131
-35 20 -180 123 -236 167 l-62 49 6 54 c4 41 2 60 -9 73 -10 11 -18 49 -22
112 -8 119 -29 242 -60 350 -14 46 -23 87 -20 91 8 13 149 60 239 79 127 26
135 26 135 -7z m538 -55 l3 -28 -65 0 c-51 0 -66 -3 -66 -15 0 -10 15 -15 58
-17 54 -3 57 -4 60 -30 3 -28 3 -28 -57 -28 -54 0 -61 -2 -61 -20 0 -18 7 -20
65 -20 l65 0 0 -30 0 -30 -105 0 -105 0 0 125 0 126 103 -3 102 -3 3 -27z
m248 0 c22 -22 20 -76 -4 -100 -19 -19 -19 -20 10 -74 l30 -54 -46 0 c-45 0
-46 1 -71 50 -14 28 -30 50 -35 50 -5 0 -10 -21 -12 -47 l-3 -48 -40 0 c-37 0
-40 2 -39 28 0 15 1 70 2 123 l2 96 95 -4 c72 -2 98 -7 111 -20z m258 -9 c35
-27 35 -72 1 -104 -16 -14 -22 -26 -15 -30 10 -6 50 -78 50 -90 0 -3 -19 -5
-42 -5 -41 0 -44 2 -68 47 -35 66 -50 67 -50 3 l0 -51 -37 3 -38 3 -3 90 c-2
50 0 105 3 123 l6 32 83 0 c69 0 88 -4 110 -21z m229 7 c45 -19 68 -48 74 -94
12 -90 -39 -152 -125 -152 -89 0 -138 54 -130 142 9 92 94 141 181 104z m309
-18 c37 -19 35 -101 -3 -113 -18 -6 -19 -9 -6 -23 18 -21 47 -77 47 -92 0 -7
-16 -10 -42 -8 -40 3 -45 6 -65 48 -27 58 -47 59 -51 3 -3 -43 -3 -43 -43 -43
l-39 0 0 58 c0 31 3 88 7 125 l6 68 86 -7 c47 -4 94 -11 103 -16z m-1021 -468
c35 -38 67 -70 71 -70 5 0 38 27 73 60 35 33 70 60 76 60 6 0 41 -32 77 -70
l67 -71 74 68 74 67 68 -72 c37 -40 70 -72 74 -72 4 0 36 27 72 60 36 33 71
60 77 60 16 0 156 -156 156 -174 0 -18 -13 -27 -26 -18 -5 4 -37 37 -71 73
l-61 67 -70 -64 c-39 -35 -75 -64 -80 -64 -6 0 -39 32 -75 72 l-65 71 -71 -64
c-40 -35 -75 -65 -79 -67 -4 -1 -36 29 -70 68 -35 38 -68 70 -73 70 -6 0 -39
-27 -73 -60 -35 -33 -68 -60 -73 -60 -6 0 -41 32 -77 71 l-66 71 -75 -66 c-70
-63 -95 -74 -95 -41 0 13 158 165 172 165 4 0 35 -31 69 -70z"/>
<path d="M3360 2483 c0 -21 4 -24 27 -21 40 4 42 34 4 40 -27 4 -31 2 -31 -19z"/>
<path d="M3630 2475 c0 -25 13 -31 44 -19 23 9 19 31 -6 38 -35 9 -38 8 -38
-19z"/>
<path d="M3880 2454 c-14 -36 -12 -56 6 -82 28 -41 68 -24 80 35 9 44 -10 73
-47 73 -22 0 -32 -6 -39 -26z"/>
<path d="M4170 2461 c0 -17 6 -21 31 -21 24 0 30 4 27 18 -2 10 -14 18 -31 20
-22 3 -27 -1 -27 -17z"/>
<path d="M5633 1397 c-17 -6 -35 -15 -38 -19 -4 -3 -22 -4 -40 -1 -27 4 -35 1
-45 -17 -10 -19 -9 -27 9 -51 12 -15 21 -32 21 -37 0 -23 116 -76 191 -87 52
-7 92 13 72 36 -9 12 5 14 87 14 82 0 101 3 119 19 12 11 21 25 21 32 0 20
-45 50 -126 84 -87 36 -215 49 -271 27z"/>
<path d="M1370 1381 c-12 -23 -10 -48 5 -83 6 -15 2 -18 -19 -18 -16 0 -26 6
-26 15 0 23 -31 95 -41 95 -15 0 -10 -64 7 -89 13 -18 14 -25 4 -31 -20 -13
-37 -1 -43 29 -7 36 -41 76 -55 67 -16 -10 -5 -55 19 -82 11 -11 19 -23 19
-27 0 -16 -50 -5 -85 18 -44 31 -59 27 -16 -4 35 -25 83 -36 108 -26 10 4 27
9 38 11 11 1 43 7 70 13 28 5 76 12 108 16 31 4 57 10 57 15 0 4 -17 4 -37 -1
-59 -13 -63 -12 -63 25 0 19 -8 44 -19 57 l-18 23 -13 -23z m35 -32 c9 -39 -8
-60 -24 -30 -12 22 -5 74 9 66 5 -3 12 -19 15 -36z m-95 -18 c5 -17 5 -31 0
-31 -8 0 -20 34 -20 59 0 21 9 8 20 -28z m-66 -28 c4 -14 3 -23 -3 -23 -14 0
-31 34 -31 62 0 22 0 22 14 3 7 -11 16 -30 20 -42z"/>
<path d="M6171 1344 c-19 -41 8 -74 59 -74 33 0 42 4 52 25 8 19 8 31 0 50
-10 21 -18 25 -55 25 -38 0 -46 -4 -56 -26z m69 -24 c0 -21 -15 -27 -25 -10
-7 12 2 30 16 30 5 0 9 -9 9 -20z"/>
<path d="M5010 1293 c-40 -14 -55 -88 -24 -114 20 -16 63 -13 84 6 8 8 33 15
55 17 35 3 40 6 40 28 0 22 -5 25 -40 28 -25 2 -44 11 -53 23 -13 19 -33 23
-62 12z"/>
<path d="M3255 1227 c-16 -31 -16 -35 -1 -65 16 -31 19 -32 76 -32 57 0 60 2
76 32 15 29 15 34 0 65 -15 32 -18 33 -74 33 -56 0 -60 -1 -77 -33z m90 -32
c0 -32 -19 -45 -29 -19 -9 22 3 56 17 51 7 -2 12 -16 12 -32z"/>
</g>
</svg>
